<svg width="647" height="177" viewBox="0 0 647 177" fill="none" xmlns="http://www.w3.org/2000/svg">
<path d="M204.09 81.3016C193.87 75.0216 184.14 69.2116 174.61 63.1016C170.97 60.7716 171.5 56.3316 175.43 54.4116C179.77 52.2916 184.25 50.4516 188.62 47.8016C187.78 47.6916 186.94 47.4916 186.1 47.4916C163.76 47.4716 141.42 47.4016 119.08 47.5216C111.77 47.5616 104.28 49.2316 99.7099 54.8716C96.2899 59.1016 92.56 60.3716 87.91 61.4816C79.2 63.5616 74.9299 71.7516 76.6699 78.6616C79.4999 77.7716 82.2799 76.6516 85.1699 76.0316C97.7999 73.3116 109.24 76.6816 118.63 84.9116C125.96 91.3416 132.37 98.9716 138.46 106.642C149.3 120.302 159.6 134.402 170.11 148.312C170.4 148.692 170.61 149.132 171.42 150.492C163.56 156.522 156.13 163.282 147.72 168.452C131.51 178.422 137.84 178.682 121.53 168.432C87.16 146.832 68.65 115.252 64.4 75.0516C62.86 60.4816 63.0999 45.9616 64.5999 31.4316C64.6999 30.4716 65.5799 29.0116 66.3799 28.7816C80.0699 24.7616 91.79 16.7716 104.36 10.4716C111.77 6.7516 119.58 3.6816 127.48 1.1516C134.61 -1.1384 141.96 0.201605 148.65 3.2816C158.26 7.7116 167.53 12.8516 177.1 17.3716C185.42 21.3016 193.96 24.7516 202.36 28.5216C203.31 28.9516 204.55 29.9816 204.65 30.8516C206.55 47.4716 206.71 64.0716 204.09 81.3016Z" fill="#E4EDF2"/>
<path d="M626.96 58.9716H634.97V132.442C629.28 134.262 627.27 133.582 624.3 128.822C612.51 109.892 600.71 90.9716 588.39 71.2116V132.602C587.1 132.822 586.27 133.052 585.44 133.082C580.41 133.262 580.39 133.252 580.39 128.342C580.39 106.782 580.39 85.2116 580.39 63.6516V58.7916C583.34 58.7916 585.82 58.5916 588.24 58.8916C589.24 59.0116 590.42 60.0016 590.99 60.9216C602.91 79.9216 614.75 98.9716 626.95 118.552V58.9716H626.96Z" fill="#E4EDF2"/>
<path d="M350.32 133.082C347.06 133.082 344.54 133.382 342.15 132.942C341.1 132.752 339.9 131.222 339.49 130.052C332.94 111.382 326.52 92.6716 320.06 73.9716C319.74 73.0416 319.41 72.1216 318.85 70.5316C314.4 83.3016 310.18 95.4416 305.77 108.122C310.64 108.122 315.19 108.082 319.74 108.132C324.6 108.192 326.65 109.782 328.59 115.232C321.86 115.232 315.29 115.542 308.77 115.122C304.47 114.842 302.33 116.182 301.58 120.402C301.17 122.702 300.1 124.882 299.33 127.122C297.05 133.802 296.09 134.292 288.26 132.442C290.09 127.302 291.9 122.192 293.73 117.092C300.26 98.8116 306.94 80.5916 313.22 62.2216C314.48 58.5416 316.71 58.8316 319.46 58.7416C322.11 58.6616 323.95 58.8716 325.06 62.0316C332.79 84.1116 340.77 106.102 348.67 128.122C349.16 129.492 349.59 130.892 350.32 133.082Z" fill="#E4EDF2"/>
<path d="M538.04 133.082C534.96 133.082 532.31 133.422 529.84 132.932C528.71 132.702 527.5 130.952 527.04 129.642C521.4 113.562 515.89 97.4416 510.34 81.3216C509.21 78.0416 508.09 74.7516 506.65 70.5216C502.17 83.3716 497.96 95.4416 493.53 108.132C498.36 108.132 502.78 108.102 507.19 108.132C512.25 108.172 514.15 109.542 516.3 114.952C514.99 115.052 513.85 115.212 512.71 115.222C506.6 115.252 500.48 115.342 494.37 115.182C491.99 115.122 490.75 115.852 490.06 118.172C488.97 121.862 487.31 125.412 486.42 129.142C485.6 132.532 483.79 133.572 480.57 133.132C479.24 132.952 477.86 133.102 476.11 133.102C476.39 131.832 476.5 130.892 476.81 130.032C484.98 107.192 493.23 84.3916 501.28 61.5116C502.24 58.7716 503.91 58.5116 506.08 58.8116C508.37 59.1316 511.16 57.4316 512.51 61.2916C520.67 84.5216 529.06 107.682 537.36 130.862C537.53 131.322 537.64 131.802 538.01 133.062L538.04 133.082Z" fill="#E4EDF2"/>
<path d="M363.65 132.562V59.5316C374.27 57.8116 384.83 55.8616 395.36 59.4016C405.63 62.8616 411.67 71.5316 411.02 81.0616C410.36 90.8716 402.84 98.9016 391.71 101.002C387.28 101.842 382.65 101.652 377.18 101.982C379.18 97.3116 381.82 95.8016 385.49 95.0216C388.92 94.2816 392.6 93.2916 395.41 91.3216C400.52 87.7416 402.2 81.2116 400.39 75.6616C398.31 69.3016 392.58 64.9916 385.39 64.6516C381.43 64.4616 377.45 64.6216 372.92 64.6216V69.8316C372.92 89.1416 372.92 108.452 372.92 127.762C372.92 131.308 371.157 133.008 367.63 132.862C366.41 132.812 365.19 132.682 363.65 132.562Z" fill="#E4EDF2"/>
<path d="M277.31 123.572C278.16 125.732 278.84 127.452 279.49 129.102C269.82 137.372 248.3 135.342 237.06 125.242C223.52 113.082 221.1 88.9516 231.79 73.0716C242.57 57.0816 263.13 54.0916 279.13 61.0816C278.12 67.1216 278.05 66.9116 272.19 65.9816C267.45 65.2316 262.48 64.5416 257.78 65.1216C247.38 66.3916 240.69 72.7616 237.37 82.5316C234.18 91.9316 234.18 101.392 238.13 110.622C244.01 124.372 257.49 130.342 271.71 125.602C273.46 125.022 275.17 124.352 277.32 123.572H277.31Z" fill="#E4EDF2"/>
<path d="M79.2201 143.032C69.1101 143.032 58.4101 144.122 48.0401 142.742C36.7601 141.232 30.1901 133.072 27.4801 122.112C26.4201 117.832 27.0901 117.172 31.6201 117.172C41.7201 117.162 51.8201 117.092 61.9101 117.262C63.3601 117.282 65.4701 118.132 66.1301 119.262C70.7201 127.202 75.0201 135.302 79.2301 143.032H79.2201Z" fill="#E4EDF2"/>
<path d="M448.78 132.852H439.27V66.1316H417.91V59.0316H470.11V65.8916H448.78V132.852Z" fill="#E4EDF2"/>
<path d="M64.2703 148.032C70.5203 148.032 76.8303 147.992 83.1403 148.092C83.8803 148.102 84.7903 148.722 85.3103 149.322C93.6203 159.002 103.18 167.282 113.69 174.502C113.63 174.862 113.57 175.222 113.51 175.582C103.67 175.152 93.6703 175.682 84.0403 174.032C72.2503 172.022 63.0603 159.092 64.2603 148.032H64.2703Z" fill="#E4EDF2"/>
<path d="M551.59 58.9816H560V132.762H551.59V58.9816Z" fill="#E4EDF2"/>
<path d="M640.66 44.2116C644.09 44.1216 646.64 46.5016 646.77 49.9116C646.9 53.3016 644.51 56.0016 641.21 56.1816C637.84 56.3716 634.86 53.6116 634.79 50.2616C634.72 47.0516 637.41 44.2916 640.66 44.2116ZM645.93 50.0716C645.87 47.3616 643.57 45.0916 640.88 45.0916C637.93 45.0916 635.76 47.4016 635.9 50.4316C636.02 53.2716 638.19 55.2616 641.06 55.1716C643.87 55.0816 646 52.8616 645.94 50.0816L645.93 50.0716Z" fill="#E4EDF2"/>
<path d="M0 84.6716H56.13C56.13 84.6716 58.73 102.762 63.45 112.782L23.81 113.022C23.81 113.022 1.51 109.052 0 84.6716Z" fill="#E4EDF2"/>
<path d="M641 46.6516C642.53 46.6516 643.26 47.5016 643.26 48.5616C643.26 49.3916 642.8 50.1816 641.71 50.4316L643.34 53.1616H642.32L640.77 50.5016H639.74V53.1616H638.89V46.6516H640.99H641ZM641 47.3516H639.75V49.8216H641C641.96 49.8216 642.38 49.3016 642.38 48.5716C642.38 47.8416 641.97 47.3616 641 47.3616V47.3516Z" fill="#E4EDF2"/>
</svg>
