<?xml version="1.0" encoding="UTF-8"?>
<svg id="Layer_2" data-name="Layer 2" xmlns="http://www.w3.org/2000/svg" viewBox="0 0 74.18 82.37">
  <defs>
    <style>
      .cls-1 {
        fill: #e4edf2;
      }
    </style>
  </defs>
  <g id="Layer_1-2" data-name="Layer 1">
    <path class="cls-1" d="m8.77,82.37h-2.9C1.68,80.9.22,77.64.06,73.52c-.03-.7-.06-1.39-.06-2.09C0,51.27,0,31.11,0,10.95c0-1.18.02-2.36.15-3.53C.83,1.26,5.75-1.59,11.42.9c1.03.45,2.05.94,3.02,1.5,17.66,10.11,35.32,20.24,52.96,30.37,1.11.64,2.2,1.34,3.23,2.11,4.28,3.19,4.75,7.75,1.07,11.57-1.17,1.21-2.64,2.18-4.11,3.03-16.43,9.47-32.86,18.92-49.34,28.29-3.04,1.73-6.31,3.08-9.47,4.6Z"/>
  </g>
</svg>